<svg width="48" height="48" viewBox="0 0 48 48" fill="none" xmlns="http://www.w3.org/2000/svg">
<rect width="48" height="48" fill="white"/>
<path d="M33.5 37.4293C33.5 39.338 32.1771 41.0795 29.2491 42.4223C26.3447 43.7542 22.2039 44.5 17.5 44.5C12.7961 44.5 8.65534 43.7542 5.75091 42.4223C2.82289 41.0795 1.5 39.338 1.5 37.4293C1.5 35.5584 2.77388 33.954 5.69886 32.7444C8.6087 31.541 12.7619 30.9293 17.5 30.9293C22.2381 30.9293 26.3913 31.541 29.3011 32.7444C32.2261 33.954 33.5 35.5584 33.5 37.4293Z" fill="white" stroke="#142B5B" stroke-width="3"/>
<path d="M30.5 11.4419C30.5 12.8474 30.1399 15.3509 29.4383 18.3887C28.7436 21.3963 27.738 24.8259 26.4991 28.053C25.2544 31.2955 23.8028 34.258 22.2411 36.3815C20.6215 38.5835 19.1714 39.5 18 39.5C16.8286 39.5 15.3785 38.5835 13.7589 36.3815C12.1972 34.258 10.7456 31.2955 9.50087 28.053C8.26202 24.8259 7.25637 21.3963 6.56171 18.3887C5.86011 15.3509 5.5 12.8474 5.5 11.4419C5.5 6.2199 10.7993 1.5 18 1.5C25.2007 1.5 30.5 6.2199 30.5 11.4419Z" fill="white" stroke="#142B5B" stroke-width="3"/>
<path d="M22.5 14C22.5 16.4853 20.4853 18.5 18 18.5C15.5147 18.5 13.5 16.4853 13.5 14C13.5 11.5147 15.5147 9.5 18 9.5C20.4853 9.5 22.5 11.5147 22.5 14Z" fill="white" stroke="#FF498B" stroke-width="3"/>
</svg>
