<svg width="30" height="29" viewBox="0 0 30 29" fill="none" xmlns="http://www.w3.org/2000/svg">
<path d="M14.3289 1.36699C14.6283 0.445681 15.9317 0.445681 16.2311 1.36699L18.9351 9.68915C19.069 10.1012 19.4529 10.3801 19.8861 10.3801L28.6366 10.3801C29.6053 10.3801 30.0081 11.6197 29.2244 12.1891L22.1451 17.3325C21.7946 17.5872 21.648 18.0385 21.7818 18.4506L24.4859 26.7727C24.7852 27.694 23.7307 28.4601 22.947 27.8907L15.8678 22.7474C15.5173 22.4927 15.0427 22.4927 14.6922 22.7474L7.61297 27.8907C6.82926 28.4601 5.77478 27.694 6.07413 26.7727L8.77816 18.4506C8.91203 18.0385 8.76537 17.5872 8.41489 17.3325L1.33564 12.1891C0.551927 11.6197 0.954703 10.3801 1.92343 10.3801L10.6739 10.3801C11.1071 10.3801 11.491 10.1012 11.6249 9.68915L14.3289 1.36699Z" fill="#FFCC47"/>
</svg>
